<svg width="27" height="27" viewBox="0 0 27 27" fill="none" xmlns="http://www.w3.org/2000/svg">
<path d="M24.4688 4.21875H2.53125C2.06455 4.21875 1.6875 4.5958 1.6875 5.0625V21.9375C1.6875 22.4042 2.06455 22.7812 2.53125 22.7812H24.4688C24.9354 22.7812 25.3125 22.4042 25.3125 21.9375V5.0625C25.3125 4.5958 24.9354 4.21875 24.4688 4.21875ZM22.3383 7.09014L14.0194 13.5633C13.8138 13.7241 13.5264 13.7241 13.3207 13.5633L4.99922 7.09014C4.96785 7.06593 4.94484 7.03251 4.93342 6.99457C4.922 6.95663 4.92273 6.91606 4.93553 6.87856C4.94832 6.84105 4.97252 6.80849 5.00475 6.78544C5.03698 6.76239 5.07561 6.74999 5.11523 6.75H22.2223C22.2619 6.74999 22.3005 6.76239 22.3328 6.78544C22.365 6.80849 22.3892 6.84105 22.402 6.87856C22.4148 6.91606 22.4155 6.95663 22.4041 6.99457C22.3927 7.03251 22.3697 7.06593 22.3383 7.09014Z" fill="white"/>
</svg>
