<svg width="22" height="22" viewBox="0 0 22 22" fill="none" xmlns="http://www.w3.org/2000/svg">
<path d="M17.6418 6.39673H4.35815C4.19634 6.39748 4.04034 6.45715 3.91932 6.56456C3.79829 6.67197 3.72051 6.81978 3.70054 6.98036L2.53329 17.5021C2.52291 17.5938 2.53193 17.6867 2.55978 17.7746C2.58762 17.8626 2.63367 17.9437 2.69491 18.0126C2.75616 18.0816 2.83124 18.137 2.91528 18.1751C2.99931 18.2131 3.09042 18.2331 3.18268 18.2337H18.8173C18.9096 18.2331 19.0007 18.2131 19.0847 18.1751C19.1687 18.137 19.2438 18.0816 19.3051 18.0126C19.3663 17.9437 19.4123 17.8626 19.4402 17.7746C19.4681 17.6867 19.4771 17.5938 19.4667 17.5021L18.2994 6.98036C18.2794 6.81978 18.2017 6.67197 18.0807 6.56456C17.9597 6.45715 17.8037 6.39748 17.6418 6.39673Z" stroke="black" stroke-width="1.43478" stroke-linecap="round" stroke-linejoin="round"/>
<path d="M7.05432 5.73914C7.05432 4.69269 7.47003 3.68909 8.20997 2.94914C8.94993 2.20919 9.95352 1.79349 11 1.79349C12.0464 1.79349 13.05 2.20919 13.79 2.94914C14.5299 3.68909 14.9456 4.69269 14.9456 5.73914" stroke="black" stroke-width="1.43478" stroke-linecap="round" stroke-linejoin="round"/>
</svg>
