<svg width="24" height="24" viewBox="0 0 24 24" fill="none" xmlns="http://www.w3.org/2000/svg">
<path d="M8.3845 2.47917L7.5241 2.73837C6.75799 2.96941 6.07383 3.41449 5.55213 4.02122C5.03043 4.62795 4.69291 5.3711 4.5793 6.16317C4.2229 8.64477 5.0197 11.5464 6.9409 14.874C8.8573 18.1932 10.9669 20.3316 13.2889 21.2676C14.035 21.5683 14.8517 21.6484 15.642 21.4984C16.4323 21.3484 17.1629 20.9747 17.7469 20.4216L18.3973 19.8048C18.8196 19.4051 19.0825 18.8656 19.137 18.2867C19.1915 17.7077 19.034 17.1287 18.6937 16.6572L17.0665 14.4012C16.8465 14.0966 16.5367 13.8685 16.1806 13.7489C15.8244 13.6292 15.4398 13.624 15.0805 13.734L12.6193 14.4864L12.5557 14.4984C12.2845 14.538 11.6581 13.9512 10.8781 12.6C10.0621 11.1864 9.8941 10.3596 10.1185 10.146L11.3701 8.97837C11.8273 8.55142 12.1397 7.99222 12.2634 7.37899C12.3871 6.76577 12.316 6.12921 12.0601 5.55837L11.2657 3.79317C11.0268 3.26199 10.6029 2.83579 10.0731 2.59403C9.54317 2.35227 8.94225 2.31145 8.3845 2.47917ZM10.1737 4.28517L10.9657 6.05037C11.1194 6.39275 11.1622 6.77462 11.0882 7.14254C11.0142 7.51047 10.827 7.84606 10.5529 8.10237L9.2977 9.27117C8.4937 10.032 8.7601 11.3304 9.8401 13.2C10.8553 14.9592 11.7817 15.828 12.7777 15.6768L12.9265 15.6456L15.4321 14.8812C15.5519 14.8444 15.6801 14.846 15.7989 14.8858C15.9177 14.9256 16.0211 15.0016 16.0945 15.1032L17.7217 17.3592C17.8921 17.5949 17.971 17.8845 17.9439 18.1741C17.9167 18.4637 17.7853 18.7336 17.5741 18.9336L16.9225 19.5504C16.5053 19.9452 15.9835 20.212 15.4192 20.319C14.8549 20.426 14.2717 20.3687 13.7389 20.154C11.7013 19.3332 9.7753 17.3808 7.9813 14.274C6.1825 11.16 5.4541 8.51157 5.7673 6.33357C5.84837 5.76769 6.08944 5.23675 6.46212 4.80327C6.8348 4.36979 7.32358 4.05181 7.8709 3.88677L8.7313 3.62757C9.01025 3.54375 9.31016 3.56425 9.57511 3.68524C9.84007 3.80624 10.052 4.01947 10.1713 4.28517" fill="black"/>
</svg>
