<svg width="27" height="27" viewBox="0 0 27 27" fill="none" xmlns="http://www.w3.org/2000/svg">
<path d="M13.5 1.125C16.1853 1.125 18.7606 2.19174 20.6595 4.09054C22.5583 5.98935 23.625 8.56468 23.625 11.25C23.625 15.4418 20.43 19.8337 14.175 24.525C13.9803 24.671 13.7434 24.75 13.5 24.75C13.2566 24.75 13.0197 24.671 12.825 24.525C6.57 19.8337 3.375 15.4418 3.375 11.25C3.375 8.56468 4.44174 5.98935 6.34054 4.09054C8.23935 2.19174 10.8147 1.125 13.5 1.125ZM13.5 7.875C12.6049 7.875 11.7464 8.23058 11.1135 8.86351C10.4806 9.49645 10.125 10.3549 10.125 11.25C10.125 12.1451 10.4806 13.0036 11.1135 13.6365C11.7464 14.2694 12.6049 14.625 13.5 14.625C14.3951 14.625 15.2536 14.2694 15.8865 13.6365C16.5194 13.0036 16.875 12.1451 16.875 11.25C16.875 10.3549 16.5194 9.49645 15.8865 8.86351C15.2536 8.23058 14.3951 7.875 13.5 7.875Z" fill="white"/>
</svg>
