<svg width="24" height="24" viewBox="0 0 24 24" fill="none" xmlns="http://www.w3.org/2000/svg">
<path d="M18.5999 4.79999C19.3956 4.79999 20.1586 5.11606 20.7212 5.67867C21.2838 6.24128 21.5999 7.00434 21.5999 7.79999V17.4C21.5999 18.1956 21.2838 18.9587 20.7212 19.5213C20.1586 20.0839 19.3956 20.4 18.5999 20.4H5.3999C4.60425 20.4 3.84119 20.0839 3.27858 19.5213C2.71597 18.9587 2.3999 18.1956 2.3999 17.4V7.79999C2.3999 7.00434 2.71597 6.24128 3.27858 5.67867C3.84119 5.11606 4.60425 4.79999 5.3999 4.79999H18.5999ZM20.3999 9.55319L12.3047 14.3172C12.2282 14.3621 12.1426 14.3895 12.0542 14.3974C11.9658 14.4053 11.8768 14.3935 11.7935 14.3628L11.6951 14.3172L3.5999 9.55559V17.4C3.5999 17.8774 3.78954 18.3352 4.12711 18.6728C4.46468 19.0103 4.92251 19.2 5.3999 19.2H18.5999C19.0773 19.2 19.5351 19.0103 19.8727 18.6728C20.2103 18.3352 20.3999 17.8774 20.3999 17.4V9.55319ZM18.5999 5.99999H5.3999C4.92251 5.99999 4.46468 6.18963 4.12711 6.5272C3.78954 6.86476 3.5999 7.3226 3.5999 7.79999V8.16239L11.9999 13.104L20.3999 8.15999V7.79999C20.3999 7.3226 20.2103 6.86476 19.8727 6.5272C19.5351 6.18963 19.0773 5.99999 18.5999 5.99999Z" fill="black"/>
</svg>
