<svg width="24" height="24" viewBox="0 0 24 24" fill="none" xmlns="http://www.w3.org/2000/svg">
<path d="M19.0712 13.142L13.4142 18.8C13.0391 19.1749 12.5305 19.3856 12.0002 19.3856C11.4699 19.3856 10.9613 19.1749 10.5862 18.8L4.9292 13.143C4.46157 12.6794 4.09011 12.1281 3.83613 11.5206C3.58216 10.9131 3.45067 10.2614 3.44923 9.60296C3.44779 8.94451 3.57642 8.29226 3.82773 7.68365C4.07904 7.07505 4.44809 6.52207 4.91368 6.05648C5.37928 5.59088 5.93225 5.22183 6.54086 4.97052C7.14947 4.71921 7.80172 4.59058 8.46017 4.59202C9.11862 4.59346 9.7703 4.72495 10.3778 4.97892C10.9853 5.2329 11.5367 5.60436 12.0002 6.07199C12.9418 5.15387 14.2071 4.64366 15.5222 4.6519C16.8373 4.66014 18.0962 5.18616 19.0262 6.11602C19.9562 7.04587 20.4824 8.30469 20.4908 9.61977C20.4992 10.9348 19.9892 12.2003 19.0712 13.142Z" stroke="black" stroke-width="1.375" stroke-linecap="round" stroke-linejoin="round"/>
</svg>
