<svg width="24" height="24" viewBox="0 0 24 24" fill="none" xmlns="http://www.w3.org/2000/svg">
<path d="M19.0705 13.142L13.4135 18.8C13.0384 19.175 12.5298 19.3856 11.9995 19.3856C11.4691 19.3856 10.9605 19.175 10.5855 18.8L4.92847 13.143C4.46084 12.6795 4.08937 12.1281 3.8354 11.5206C3.58142 10.9131 3.44994 10.2614 3.4485 9.60299C3.44706 8.94454 3.57568 8.29229 3.827 7.68368C4.07831 7.07508 4.44736 6.5221 4.91295 6.05651C5.37855 5.59091 5.93152 5.22186 6.54013 4.97055C7.14873 4.71924 7.80098 4.59061 8.45943 4.59205C9.11789 4.59349 9.76957 4.72498 10.3771 4.97895C10.9846 5.23293 11.5359 5.60439 11.9995 6.07203C12.941 5.1539 14.2064 4.64369 15.5215 4.65193C16.8366 4.66017 18.0955 5.18619 19.0255 6.11605C19.9554 7.0459 20.4816 8.30472 20.4901 9.6198C20.4985 10.9349 19.9885 12.2003 19.0705 13.142Z" stroke="black" stroke-width="1.375" stroke-linecap="round" stroke-linejoin="round"/>
</svg>
