<svg width="24" height="24" viewBox="0 0 24 24" fill="none" xmlns="http://www.w3.org/2000/svg">
<path d="M19.0702 13.142L13.4132 18.8C13.0382 19.175 12.5296 19.3856 11.9992 19.3856C11.4689 19.3856 10.9603 19.175 10.5852 18.8L4.92823 13.143C4.4606 12.6795 4.08913 12.1281 3.83515 11.5206C3.58118 10.9131 3.4497 10.2614 3.44825 9.60299C3.44681 8.94454 3.57544 8.29229 3.82675 7.68368C4.07806 7.07508 4.44711 6.5221 4.91271 6.05651C5.3783 5.59091 5.93128 5.22186 6.53988 4.97055C7.14849 4.71924 7.80074 4.59061 8.45919 4.59205C9.11764 4.59349 9.76932 4.72498 10.3768 4.97895C10.9843 5.23293 11.5357 5.60439 11.9992 6.07203C12.9408 5.1539 14.2062 4.64369 15.5213 4.65193C16.8363 4.66017 18.0952 5.18619 19.0252 6.11605C19.9552 7.0459 20.4814 8.30472 20.4898 9.6198C20.4982 10.9349 19.9882 12.2003 19.0702 13.142Z" stroke="black" stroke-width="1.375" stroke-linecap="round" stroke-linejoin="round"/>
</svg>
