<svg width="38" height="24" viewBox="0 0 38 24" fill="none" xmlns="http://www.w3.org/2000/svg">
<path opacity="0.07" d="M35.0079 0.000976562H3.00961C1.3097 0.000976562 0.00976562 1.30087 0.00976562 3.00073V20.9992C0.00976562 22.6991 1.40969 23.999 3.00961 23.999H35.0079C36.7078 23.999 38.0078 22.6991 38.0078 20.9992V3.00073C38.0078 1.30087 36.6078 0.000976562 35.0079 0.000976562Z" fill="black"/>
<path d="M35.008 1.00098C36.1079 1.00098 37.0079 1.9009 37.0079 3.00081V20.9993C37.0079 22.0992 36.1079 22.9992 35.008 22.9992H3.00966C1.90972 22.9992 1.00977 22.0992 1.00977 20.9993V3.00081C1.00977 1.9009 1.90972 1.00098 3.00966 1.00098H35.008Z" fill="#006FCF"/>
<path d="M22.0215 19.9354V11.5151L37.0082 11.5281V13.8539L35.2764 15.7058L37.0082 17.5726V19.9474H34.2425L32.7726 18.3256L31.3127 19.9534L22.0215 19.9334V19.9354Z" fill="white"/>
<path d="M23.0215 19.0114V12.4419H28.593V13.9548H24.8253V14.9827H28.503V16.4706H24.8253V17.4805H28.593V19.0114H23.0215Z" fill="#006FCF"/>
<path d="M28.5645 19.0114L31.6472 15.7226L28.5645 12.4409H30.9503L32.8341 14.5237L34.7239 12.4419H37.0068V12.4929L33.99 15.7226L37.0068 18.9194V19.0124H34.6999L32.7831 16.9095L30.8853 19.0134H28.5645V19.0114Z" fill="#006FCF"/>
<path d="M22.7175 4.04053H26.3312L27.6001 6.92129V4.04053H32.0597L32.8297 6.19935L33.6006 4.04053H37.0063V12.4608H19.0078L22.7175 4.04053Z" fill="white"/>
<path d="M23.404 4.95557L20.4883 11.521H22.4881L23.0381 10.2061H26.0178L26.5678 11.521H28.6176L25.7138 4.95557H23.404ZM23.654 8.73225L24.5289 6.64243L25.4019 8.73225H23.654Z" fill="#006FCF"/>
<path d="M28.5898 11.5201V4.95361L31.4006 4.96361L32.8485 9.00028L34.3044 4.95461H37.0081V11.5191L35.2683 11.5351V7.02544L33.6244 11.5191H32.0346L30.3587 7.01044V11.5201H28.5908H28.5898Z" fill="#006FCF"/>
</svg>
