<svg width="39" height="24" viewBox="0 0 39 24" fill="none" xmlns="http://www.w3.org/2000/svg">
<path opacity="0.07" d="M35.0121 0.000976562H3.01382C1.31391 0.000976562 0.0139771 1.30087 0.0139771 3.00073V20.9992C0.0139771 22.6991 1.4139 23.999 3.01382 23.999H35.0121C36.712 23.999 38.012 22.6991 38.012 20.9992V3.00073C38.012 1.30087 36.612 0.000976562 35.0121 0.000976562Z" fill="black"/>
<path d="M35.0121 1.00098C36.112 1.00098 37.012 1.9009 37.012 3.00081V20.9993C37.012 22.0992 36.112 22.9992 35.0121 22.9992H3.01378C1.91384 22.9992 1.01389 22.0992 1.01389 20.9993V3.00081C1.01389 1.9009 1.91384 1.00098 3.01378 1.00098H35.0121Z" fill="white"/>
<path d="M28.3125 10.1003H28.0125C27.6125 11.1002 27.3125 11.6002 27.0125 13.1001H28.9124C28.6125 11.6002 28.6125 10.9002 28.3125 10.1003ZM31.2123 15.9998H29.5124C29.4124 15.9998 29.4124 15.9998 29.3124 15.8998L29.1124 14.9999L29.0124 14.7999H26.6126C26.5126 14.7999 26.4126 14.7999 26.4126 14.9999L26.1126 15.8998C26.1126 15.9998 26.0126 15.9998 26.0126 15.9998H23.9127L24.1127 15.4999L27.0125 8.70043C27.0125 8.20047 27.3125 8.00049 27.8125 8.00049H29.3124C29.4124 8.00049 29.5124 8.00049 29.5124 8.20047L30.9123 14.6999C31.0123 15.0999 31.1123 15.3999 31.1123 15.7998C31.2123 15.8998 31.2123 15.8998 31.2123 15.9998ZM17.813 15.6999L18.213 13.9C18.313 13.9 18.413 14 18.413 14C19.113 14.3 19.8129 14.5 20.5129 14.4C20.7129 14.4 21.0129 14.3 21.2129 14.2C21.7128 14 21.7128 13.5 21.3128 13.1001C21.1129 12.9001 20.8129 12.8001 20.5129 12.6001C20.1129 12.4001 19.7129 12.2001 19.4129 11.9002C18.213 10.9002 18.613 9.50036 19.313 8.80042C19.9129 8.40046 20.2129 8.00049 21.0129 8.00049C22.2128 8.00049 23.5127 8.00049 24.1127 8.20047H24.2127C24.1127 8.80042 24.0127 9.30038 23.8127 9.90033C23.3127 9.70035 22.8128 9.50036 22.3128 9.50036C22.0128 9.50036 21.7128 9.50036 21.4128 9.60036C21.2129 9.60036 21.1129 9.70035 21.0129 9.80034C20.8129 10.0003 20.8129 10.3003 21.0129 10.5003L21.5128 10.9002C21.9128 11.1002 22.3128 11.3002 22.6128 11.5002C23.1128 11.8002 23.6127 12.3001 23.7127 12.9001C23.9127 13.8 23.6127 14.5999 22.8128 15.1999C22.3128 15.5999 22.1128 15.7998 21.4128 15.7998C20.0129 15.7998 18.913 15.8998 18.013 15.5999C17.913 15.7998 17.913 15.7998 17.813 15.6999ZM14.3132 15.9998C14.4132 15.2999 14.4132 15.2999 14.5132 14.9999C15.0132 12.8001 15.5132 10.5003 15.9131 8.30046C16.0131 8.10048 16.0131 8.00049 16.2131 8.00049H18.013C17.813 9.20039 17.613 10.1003 17.3131 11.2002C17.0131 12.7001 16.7131 14.2 16.3131 15.6999C16.3131 15.8998 16.2131 15.8998 16.0131 15.8998M5.0137 8.20047C5.0137 8.10048 5.21369 8.00049 5.31369 8.00049H8.71351C9.21348 8.00049 9.61346 8.30046 9.71346 8.80042L10.6134 13.2001C10.6134 13.3001 10.6134 13.3001 10.7134 13.4C10.7134 13.3001 10.8134 13.3001 10.8134 13.3001L12.9133 8.20047C12.8133 8.10048 12.9133 8.00049 13.0133 8.00049H15.1132C15.1132 8.10048 15.1132 8.10048 15.0132 8.20047L11.9133 15.4999C11.8133 15.6999 11.8133 15.7998 11.7133 15.8998C11.6134 15.9998 11.4134 15.8998 11.2134 15.8998H9.71346C9.61346 15.8998 9.51347 15.8998 9.51347 15.6999L7.91355 9.50036C7.71356 9.30038 7.41358 9.00041 7.0136 8.90041C6.41363 8.60044 5.31369 8.40045 5.1137 8.40045L5.0137 8.20047Z" fill="#142688"/>
</svg>
