<svg width="38" height="24" viewBox="0 0 38 24" fill="none" xmlns="http://www.w3.org/2000/svg">
<path opacity="0.07" d="M35.0099 0.000976562H3.01156C1.31165 0.000976562 0.0117188 1.30087 0.0117188 3.00073V20.9992C0.0117188 22.6991 1.41165 23.999 3.01156 23.999H35.0099C36.7098 23.999 38.0097 22.6991 38.0097 20.9992V3.00073C38.0097 1.30087 36.6098 0.000976562 35.0099 0.000976562Z" fill="black"/>
<path d="M35.0099 1.00085C36.1099 1.00085 37.0098 1.90078 37.0098 3.00069V20.9992C37.0098 22.0991 36.1099 22.999 35.0099 22.999H3.01161C1.91167 22.999 1.01172 22.0991 1.01172 20.9992V3.00069C1.01172 1.90078 1.91167 1.00085 3.01161 1.00085H35.0099Z" fill="white"/>
<path d="M15.0111 18.9995C18.8768 18.9995 22.0106 15.8657 22.0106 12C22.0106 8.13436 18.8768 5.00061 15.0111 5.00061C11.1455 5.00061 8.01172 8.13436 8.01172 12C8.01172 15.8657 11.1455 18.9995 15.0111 18.9995Z" fill="#EB001B"/>
<path d="M23.0102 18.9995C26.8758 18.9995 30.0096 15.8657 30.0096 12C30.0096 8.13436 26.8758 5.00061 23.0102 5.00061C19.1445 5.00061 16.0107 8.13436 16.0107 12C16.0107 15.8657 19.1445 18.9995 23.0102 18.9995Z" fill="#F79E1B"/>
<path d="M22.0102 11.9999C22.0102 9.60014 20.8103 7.50032 19.0105 6.30042C17.2106 7.60031 16.0107 9.70013 16.0107 11.9999C16.0107 14.2998 17.2106 16.4996 19.0105 17.6995C20.8103 16.4996 22.0102 14.3997 22.0102 11.9999Z" fill="#FF5F00"/>
</svg>
