<svg width="38" height="24" viewBox="0 0 38 24" fill="none" xmlns="http://www.w3.org/2000/svg">
<path opacity="0.07" d="M35.0099 0.000976562H3.01156C1.31165 0.000976562 0.0117188 1.30087 0.0117188 3.00073V20.9992C0.0117188 22.6991 1.41165 23.999 3.01156 23.999H35.0099C36.7098 23.999 38.0097 22.6991 38.0097 20.9992V3.00073C38.0097 1.30087 36.6098 0.000976562 35.0099 0.000976562Z" fill="black"/>
<path d="M35.0099 1.00098C36.1099 1.00098 37.0098 1.9009 37.0098 3.00081V20.9993C37.0098 22.0992 36.1099 22.9992 35.0099 22.9992H3.01161C1.91167 22.9992 1.01172 22.0992 1.01172 20.9993V3.00081C1.01172 1.9009 1.91167 1.00098 3.01161 1.00098H35.0099Z" fill="white"/>
<path d="M15.0111 18.9993C18.8768 18.9993 22.0106 15.8656 22.0106 11.9999C22.0106 8.13424 18.8768 5.00049 15.0111 5.00049C11.1455 5.00049 8.01172 8.13424 8.01172 11.9999C8.01172 15.8656 11.1455 18.9993 15.0111 18.9993Z" fill="#EB001B"/>
<path d="M23.0111 18.9993C26.8768 18.9993 30.0106 15.8656 30.0106 11.9999C30.0106 8.13424 26.8768 5.00049 23.0111 5.00049C19.1455 5.00049 16.0117 8.13424 16.0117 11.9999C16.0117 15.8656 19.1455 18.9993 23.0111 18.9993Z" fill="#F79E1B"/>
<path d="M22.0112 11.9998C22.0112 9.60002 20.8113 7.50019 19.0115 6.30029C17.2116 7.60019 16.0117 9.70001 16.0117 11.9998C16.0117 14.2996 17.2116 16.4995 19.0115 17.6994C20.8113 16.4995 22.0112 14.3996 22.0112 11.9998Z" fill="#FF5F00"/>
</svg>
