<svg width="39" height="24" viewBox="0 0 39 24" fill="none" xmlns="http://www.w3.org/2000/svg">
<path opacity="0.07" d="M35.0104 0.000976562H3.01205C1.31214 0.000976562 0.012207 1.30087 0.012207 3.00073V20.9992C0.012207 22.6991 1.41213 23.999 3.01205 23.999H35.0104C36.7103 23.999 38.0102 22.6991 38.0102 20.9992V3.00073C38.0102 1.30087 36.6103 0.000976562 35.0104 0.000976562Z" fill="black"/>
<path d="M35.0104 1.00098C36.1104 1.00098 37.0103 1.9009 37.0103 3.00081V20.9993C37.0103 22.0992 36.1104 22.9992 35.0104 22.9992H3.0121C1.91216 22.9992 1.01221 22.0992 1.01221 20.9993V3.00081C1.01221 1.9009 1.91216 1.00098 3.0121 1.00098H35.0104Z" fill="white"/>
<path d="M15.0111 18.9993C18.8768 18.9993 22.0106 15.8656 22.0106 11.9999C22.0106 8.13424 18.8768 5.00049 15.0111 5.00049C11.1455 5.00049 8.01172 8.13424 8.01172 11.9999C8.01172 15.8656 11.1455 18.9993 15.0111 18.9993Z" fill="#EB001B"/>
<path d="M23.0107 18.9993C26.8763 18.9993 30.0101 15.8656 30.0101 11.9999C30.0101 8.13424 26.8763 5.00049 23.0107 5.00049C19.145 5.00049 16.0112 8.13424 16.0112 11.9999C16.0112 15.8656 19.145 18.9993 23.0107 18.9993Z" fill="#F79E1B"/>
<path d="M22.0107 12.0001C22.0107 9.60026 20.8108 7.50044 19.011 6.30054C17.2111 7.60043 16.0112 9.70026 16.0112 12.0001C16.0112 14.2999 17.2111 16.4997 19.011 17.6996C20.8108 16.4997 22.0107 14.3999 22.0107 12.0001Z" fill="#FF5F00"/>
</svg>
