<svg width="38" height="24" viewBox="0 0 38 24" fill="none" xmlns="http://www.w3.org/2000/svg">
<path opacity="0.07" d="M35.0084 0.000976562H3.0101C1.31019 0.000976562 0.0102539 1.30087 0.0102539 3.00073V20.9992C0.0102539 22.6991 1.41018 23.999 3.0101 23.999H35.0084C36.7083 23.999 38.0083 22.6991 38.0083 20.9992V3.00073C38.0083 1.30087 36.6083 0.000976562 35.0084 0.000976562Z" fill="black"/>
<path d="M35.0085 1.00098C36.1084 1.00098 37.0084 1.9009 37.0084 3.00081V20.9993C37.0084 22.0992 36.1084 22.9992 35.0085 22.9992H3.01015C1.91021 22.9992 1.01025 22.0992 1.01025 20.9993V3.00081C1.01025 1.9009 1.91021 1.00098 3.01015 1.00098H35.0085Z" fill="#006FCF"/>
<path d="M22.021 19.9354V11.5151L37.0078 11.5281V13.8539L35.2759 15.7058L37.0078 17.5726V19.9474H34.242L32.7721 18.3256L31.3122 19.9534L22.021 19.9334V19.9354Z" fill="white"/>
<path d="M23.022 19.0114V12.4419H28.5935V13.9548H24.8258V14.9827H28.5035V16.4706H24.8258V17.4805H28.5935V19.0114H23.022Z" fill="#006FCF"/>
<path d="M28.5659 19.0114L31.6487 15.7226L28.5659 12.4409H30.9517L32.8356 14.5237L34.7254 12.4419H37.0082V12.4929L33.9915 15.7226L37.0082 18.9194V19.0124H34.7014L32.7846 16.9095L30.8867 19.0134H28.5659V19.0114Z" fill="#006FCF"/>
<path d="M22.719 4.04053H26.3327L27.6016 6.92129V4.04053H32.0612L32.8311 6.19935L33.6021 4.04053H37.0078V12.4608H19.0093L22.719 4.04053Z" fill="white"/>
<path d="M23.404 4.95557L20.4883 11.521H22.4881L23.0381 10.2061H26.0178L26.5678 11.521H28.6176L25.7138 4.95557H23.404ZM23.654 8.73225L24.5289 6.64243L25.4019 8.73225H23.654Z" fill="#006FCF"/>
<path d="M28.5898 11.5201V4.95361L31.4006 4.96361L32.8485 9.00028L34.3044 4.95461H37.0081V11.5191L35.2683 11.5351V7.02544L33.6244 11.5191H32.0346L30.3587 7.01044V11.5201H28.5908H28.5898Z" fill="#006FCF"/>
</svg>
