<svg width="38" height="24" viewBox="0 0 38 24" fill="none" xmlns="http://www.w3.org/2000/svg">
<path opacity="0.07" d="M35.0081 0.000976562H3.00982C1.30991 0.000976562 0.00997925 1.30087 0.00997925 3.00073V20.9992C0.00997925 22.6991 1.40991 23.999 3.00982 23.999H35.0081C36.708 23.999 38.008 22.6991 38.008 20.9992V3.00073C38.008 1.30087 36.6081 0.000976562 35.0081 0.000976562Z" fill="black"/>
<path d="M35.0081 1.00098C36.108 1.00098 37.008 1.9009 37.008 3.00081V20.9993C37.008 22.0992 36.108 22.9992 35.0081 22.9992H3.00978C1.90984 22.9992 1.00989 22.0992 1.00989 20.9993V3.00081C1.00989 1.9009 1.90984 1.00098 3.00978 1.00098H35.0081Z" fill="#006FCF"/>
<path d="M22.0208 19.9354V11.5151L37.0076 11.5281V13.8539L35.2757 15.7058L37.0076 17.5726V19.9474H34.2418L32.7719 18.3256L31.312 19.9534L22.0208 19.9334V19.9354Z" fill="white"/>
<path d="M23.0218 19.0114V12.4419H28.5933V13.9548H24.8256V14.9827H28.5033V16.4706H24.8256V17.4805H28.5933V19.0114H23.0218Z" fill="#006FCF"/>
<path d="M28.5655 19.0114L31.6482 15.7226L28.5655 12.4409H30.9513L32.8351 14.5237L34.725 12.4419H37.0078V12.4929L33.991 15.7226L37.0078 18.9194V19.0124H34.701L32.7841 16.9095L30.8863 19.0134H28.5655V19.0114Z" fill="#006FCF"/>
<path d="M22.7187 4.04053H26.3324L27.6013 6.92129V4.04053H32.0609L32.8308 6.19935L33.6018 4.04053H37.0075V12.4608H19.009L22.7187 4.04053Z" fill="white"/>
<path d="M23.4037 4.95557L20.4879 11.521H22.4877L23.0377 10.2061H26.0175L26.5674 11.521H28.6172L25.7135 4.95557H23.4037ZM23.6537 8.73225L24.5286 6.64243L25.4015 8.73225H23.6537Z" fill="#006FCF"/>
<path d="M28.5895 11.5201V4.95361L31.4002 4.96361L32.8481 9.00028L34.304 4.95461H37.0078V11.5191L35.2679 11.5351V7.02544L33.6241 11.5191H32.0342L30.3583 7.01044V11.5201H28.5905H28.5895Z" fill="#006FCF"/>
</svg>
