<svg width="39" height="24" viewBox="0 0 39 24" fill="none" xmlns="http://www.w3.org/2000/svg">
<path opacity="0.07" d="M35.0118 0.000976562H3.01351C1.3136 0.000976562 0.0136719 1.30087 0.0136719 3.00073V20.9992C0.0136719 22.6991 1.4136 23.999 3.01351 23.999H35.0118C36.7117 23.999 38.0117 22.6991 38.0117 20.9992V3.00073C38.0117 1.30087 36.6117 0.000976562 35.0118 0.000976562Z" fill="black"/>
<path d="M35.0119 1.00085C36.1118 1.00085 37.0118 1.90078 37.0118 3.00069V20.9992C37.0118 22.0991 36.1118 22.999 35.0119 22.999H3.01357C1.91362 22.999 1.01367 22.0991 1.01367 20.9992V3.00069C1.01367 1.90078 1.91362 1.00085 3.01357 1.00085H35.0119Z" fill="white"/>
<path d="M28.3124 10.1002H28.0125C27.6125 11.1001 27.3125 11.6001 27.0125 13.0999H28.9124C28.6124 11.6001 28.6124 10.9001 28.3124 10.1002ZM31.2123 15.9997H29.5124C29.4124 15.9997 29.4124 15.9997 29.3124 15.8997L29.1124 14.9998L29.0124 14.7998H26.6125C26.5125 14.7998 26.4125 14.7998 26.4125 14.9998L26.1126 15.8997C26.1126 15.9997 26.0126 15.9997 26.0126 15.9997H23.9127L24.1127 15.4997L27.0125 8.70031C27.0125 8.20035 27.3125 8.00037 27.8125 8.00037H29.3124C29.4124 8.00037 29.5124 8.00037 29.5124 8.20035L30.9123 14.6998C31.0123 15.0998 31.1123 15.3998 31.1123 15.7997C31.2123 15.8997 31.2123 15.8997 31.2123 15.9997ZM17.813 15.6997L18.213 13.8999C18.313 13.8999 18.413 13.9999 18.413 13.9999C19.1129 14.2998 19.8129 14.4998 20.5129 14.3998C20.7128 14.3998 21.0128 14.2998 21.2128 14.1999C21.7128 13.9999 21.7128 13.4999 21.3128 13.0999C21.1128 12.9 20.8128 12.8 20.5129 12.6C20.1129 12.4 19.7129 12.2 19.4129 11.9C18.213 10.9001 18.613 9.50024 19.3129 8.8003C19.9129 8.40033 20.2129 8.00037 21.0128 8.00037C22.2128 8.00037 23.5127 8.00037 24.1127 8.20035H24.2127C24.1127 8.8003 24.0127 9.30026 23.8127 9.90021C23.3127 9.70023 22.8127 9.50024 22.3128 9.50024C22.0128 9.50024 21.7128 9.50024 21.4128 9.60023C21.2128 9.60023 21.1128 9.70023 21.0128 9.80022C20.8128 10.0002 20.8128 10.3002 21.0128 10.5002L21.5128 10.9001C21.9128 11.1001 22.3128 11.3001 22.6127 11.5001C23.1127 11.8001 23.6127 12.3 23.7127 12.9C23.9127 13.7999 23.6127 14.5998 22.8127 15.1998C22.3128 15.5997 22.1128 15.7997 21.4128 15.7997C20.0129 15.7997 18.9129 15.8997 18.013 15.5997C17.913 15.7997 17.913 15.7997 17.813 15.6997ZM14.3132 15.9997C14.4132 15.2998 14.4132 15.2998 14.5132 14.9998C15.0131 12.8 15.5131 10.5002 15.9131 8.30034C16.0131 8.10036 16.0131 8.00037 16.2131 8.00037H18.013C17.813 9.20027 17.613 10.1002 17.313 11.2001C17.013 12.7 16.7131 14.1999 16.3131 15.6997C16.3131 15.8997 16.2131 15.8997 16.0131 15.8997M5.01367 8.20035C5.01367 8.10036 5.21366 8.00037 5.31366 8.00037H8.71348C9.21345 8.00037 9.61343 8.30034 9.71342 8.8003L10.6134 13.1999C10.6134 13.2999 10.6134 13.2999 10.7134 13.3999C10.7134 13.2999 10.8134 13.2999 10.8134 13.2999L12.9133 8.20035C12.8133 8.10036 12.9133 8.00037 13.0133 8.00037H15.1131C15.1131 8.10036 15.1131 8.10036 15.0131 8.20035L11.9133 15.4997C11.8133 15.6997 11.8133 15.7997 11.7133 15.8997C11.6133 15.9997 11.4133 15.8997 11.2133 15.8997H9.71342C9.61343 15.8997 9.51344 15.8997 9.51344 15.6997L7.91352 9.50024C7.71353 9.30026 7.41355 9.00028 7.01357 8.90029C6.4136 8.60032 5.31366 8.40033 5.11367 8.40033L5.01367 8.20035Z" fill="#142688"/>
</svg>
