<svg width="38" height="24" viewBox="0 0 38 24" fill="none" xmlns="http://www.w3.org/2000/svg">
<path opacity="0.07" d="M35.0079 0.000976562H3.00961C1.3097 0.000976562 0.00976562 1.30087 0.00976562 3.00073V20.9992C0.00976562 22.6991 1.40969 23.999 3.00961 23.999H35.0079C36.7078 23.999 38.0078 22.6991 38.0078 20.9992V3.00073C38.0078 1.30087 36.6078 0.000976562 35.0079 0.000976562Z" fill="black"/>
<path d="M35.008 1.00085C36.1079 1.00085 37.0079 1.90078 37.0079 3.00069V20.9992C37.0079 22.0991 36.1079 22.999 35.008 22.999H3.00966C1.90972 22.999 1.00977 22.0991 1.00977 20.9992V3.00069C1.00977 1.90078 1.90972 1.00085 3.00966 1.00085H35.008Z" fill="#006FCF"/>
<path d="M22.0205 19.9353V11.515L37.0073 11.528V13.8538L35.2754 15.7057L37.0073 17.5725V19.9473H34.2415L32.7716 18.3255L31.3117 19.9533L22.0205 19.9333V19.9353Z" fill="white"/>
<path d="M23.0215 19.0115V12.442H28.593V13.9549H24.8253V14.9828H28.503V16.4707H24.8253V17.4806H28.593V19.0115H23.0215Z" fill="#006FCF"/>
<path d="M28.5654 19.0114L31.6482 15.7226L28.5654 12.4409H30.9512L32.8351 14.5237L34.7249 12.4419H37.0077V12.4929L33.991 15.7226L37.0077 18.9194V19.0124H34.7009L32.7841 16.9095L30.8862 19.0134H28.5654V19.0114Z" fill="#006FCF"/>
<path d="M22.7185 4.04065H26.3322L27.6011 6.92141V4.04065H32.0607L32.8306 6.19947L33.6016 4.04065H37.0073V12.461H19.0088L22.7185 4.04065Z" fill="white"/>
<path d="M23.4031 4.95557L20.4873 11.521H22.4871L23.0371 10.2061H26.0168L26.5668 11.521H28.6166L25.7129 4.95557H23.4031ZM23.653 8.73225L24.528 6.64243L25.4009 8.73225H23.653Z" fill="#006FCF"/>
<path d="M28.5889 11.5201V4.95361L31.3996 4.96361L32.8475 9.00028L34.3034 4.95461H37.0072V11.5191L35.2673 11.5351V7.02544L33.6235 11.5191H32.0336L30.3577 7.01044V11.5201H28.5899H28.5889Z" fill="#006FCF"/>
</svg>
