<svg width="27" height="27" viewBox="0 0 27 27" fill="none" xmlns="http://www.w3.org/2000/svg">
<path d="M7.4475 12.1387C9.0675 15.3225 11.6775 17.9325 14.8613 19.5525L17.3362 17.0775C17.6512 16.7625 18.09 16.6725 18.4838 16.7963C19.7438 17.2125 21.0938 17.4375 22.5 17.4375C22.7984 17.4375 23.0845 17.556 23.2955 17.767C23.5065 17.978 23.625 18.2641 23.625 18.5625V22.5C23.625 22.7984 23.5065 23.0845 23.2955 23.2955C23.0845 23.5065 22.7984 23.625 22.5 23.625C17.4277 23.625 12.5632 21.6101 8.97658 18.0234C5.38995 14.4368 3.375 9.57227 3.375 4.5C3.375 4.20163 3.49353 3.91548 3.7045 3.7045C3.91548 3.49353 4.20163 3.375 4.5 3.375H8.4375C8.73587 3.375 9.02202 3.49353 9.23299 3.7045C9.44397 3.91548 9.5625 4.20163 9.5625 4.5C9.5625 5.90625 9.7875 7.25625 10.2037 8.51625C10.3275 8.91 10.2375 9.34875 9.9225 9.66375L7.4475 12.1387Z" fill="white"/>
</svg>
