<svg width="94" height="48" viewBox="0 0 94 48" fill="none" xmlns="http://www.w3.org/2000/svg">
<g clip-path="url(#clip0_577_3464)">
<path d="M45.6874 26.6227C44.2014 26.6227 42.9135 32.5608 41.7247 32.5113C40.6845 32.4619 41.5761 28.4041 39.991 28.4041C39.0003 28.4041 38.7031 30.0371 38.3068 31.4227C38.2573 31.5217 37.5638 34.2928 36.4741 34.2928C35.7806 34.2928 35.1862 33.7485 35.1862 32.1155C35.1862 31.3732 35.1367 30.2351 34.2451 30.0371C32.66 29.6907 33.0067 31.3237 31.6197 31.0763C27.7561 30.334 24.9327 38.1031 27.2112 39.0928C29.9851 40.3299 31.9665 35.4804 32.8086 35.5794C33.4525 35.6784 33.0067 37.8062 34.9881 37.6577C36.5732 37.5588 37.861 34.2433 38.505 34.2928C39.0499 34.3423 38.5545 36.2722 39.9415 36.3711C41.5761 36.4701 42.22 33.7485 42.963 33.7485C43.1612 33.7485 43.2107 33.8969 43.2107 34.5402C43.2107 35.4309 43.0621 46.8619 43.0621 47.2577C43.0126 47.9505 43.3593 48 43.5079 48C43.607 48 45.1921 47.9505 45.4893 47.9505C45.7865 47.9505 45.836 47.6536 45.836 47.5052C45.836 47.4557 46.0341 30.8784 46.0837 27.3155C46.0837 26.6227 45.7865 26.6227 45.6874 26.6227ZM32.2637 33.4515C31.8674 34.7876 30.3814 37.0144 29.6384 37.1134C29.4403 37.1134 29.0935 37.0144 29.143 36.5196C29.1926 35.3814 30.9758 32.8082 31.6693 32.6103C32.2142 32.4619 32.4123 32.9072 32.2637 33.4515ZM92.6457 19.2495C89.7231 21.0804 90.268 14.2515 88.4848 14.2515C86.553 14.2515 85.9586 18.3093 85.2651 18.3588C84.423 18.4577 85.5623 15.3897 83.8781 15.4392C82.0454 15.5381 81.0052 22.2186 79.6182 21.7237C78.2313 21.1794 79.2219 17.666 77.6864 17.3691C76.8938 17.2206 76.6957 17.8639 76.2499 18.1608C75.5564 18.6062 74.2685 17.8144 72.2376 20.1402C69.9591 22.8124 69.2656 27.068 70.9993 27.3649C73.3274 27.7608 75.4574 23.7526 76.0022 23.2577C76.7452 22.5649 76.349 25.3361 78.3799 25.3856C80.5098 25.4351 81.1538 21.8722 81.7977 21.9216C82.3426 21.9711 81.6986 23.8021 82.7389 23.901C84.9679 24.1979 86.1567 18.4082 87.0978 18.5072C87.9895 18.6062 87.6427 22.0701 89.8717 22.3175C91.754 22.5155 92.9924 19.9423 93.1905 19.5959C93.3887 19.299 93.0419 19.0021 92.6457 19.2495ZM76.0022 21.0804C75.5564 22.268 74.3676 24.1979 73.5751 24.3464C73.3274 24.3959 72.9806 24.1485 73.0302 23.7031C73.0797 22.6639 74.8134 20.4866 75.5069 20.2887C76.0022 20.1897 76.1508 20.5856 76.0022 21.0804ZM21.6634 37.8062C21.1681 37.5588 21.1185 37.0144 21.1185 36.767C21.1185 36.5196 21.1185 35.233 21.1185 34.3423C21.1185 33.4515 21.2176 33.3031 21.9111 32.8577C32.5114 25.0887 34.3441 18.3588 31.3721 14.1031C25.2299 5.39381 4.17791 18.9526 2.64235 20.0412C1.05726 21.1794 0.908661 22.9113 0.859127 23.4557C0.760059 23.8515 0.760059 25.8804 0.760059 26.4247C0.760059 26.8701 0.710525 27.3155 1.89934 26.3753C9.23038 20.2887 26.2205 9.50103 29.4898 16.2804C31.0749 19.5959 30.0347 24.5938 22.0102 30.532C21.3167 31.0268 21.1681 30.3835 21.1185 29.9876C21.1185 29.6907 21.1185 18.3093 21.1185 17.5175C21.1185 16.3299 20.0783 16.7753 19.7316 16.9732C19.5334 17.1216 18.84 17.567 18.196 17.9629C17.6512 18.3093 17.7007 18.6062 17.7007 18.9031C17.7007 19.101 17.7502 31.5216 17.7502 32.5113C17.7502 33.3526 17.7502 33.6495 17.354 33.9464C17.1063 34.1443 13.5894 36.1732 12.8959 36.6186C12.3015 36.9649 12.4996 37.5093 12.7968 37.6082C13.0445 37.7072 16.6605 39.4392 17.2054 39.6866C17.8493 39.9835 17.7998 40.3794 17.7998 40.6268C17.7998 40.8247 17.7998 44.7835 17.7998 46.9113C17.7998 48 18.4932 47.4557 18.7409 47.3567C18.939 47.2577 19.9297 46.6639 20.5737 46.2186C21.1681 45.8227 21.1185 45.0804 21.1185 44.7835V42.6557C21.1185 41.8639 21.5643 41.7649 21.8615 41.9134C22.1092 42.0124 30.1337 45.8722 31.6197 46.5649C32.5609 47.0103 33.3534 46.6639 33.6506 46.1196C33.7002 46.0206 33.9478 45.5753 34.2451 44.932C34.6413 44.0907 33.8983 43.5959 33.3534 43.3485C32.9076 43.101 22.2083 38.0536 21.6634 37.8062ZM53.5138 25.9299C52.7212 25.0392 51.1857 25.0887 49.9473 25.8309C48.3622 26.8206 47.9164 28.3546 48.709 29.1959C49.5015 30.0371 51.3343 29.8887 52.4736 29.1464C53.8605 28.2557 54.3063 26.8206 53.5138 25.9299ZM65.4515 2.67216C69.1665 6.33402 62.8262 13.3113 61.2906 15.0928C60.5971 15.8845 59.9532 17.0722 61.043 18.2598C62.1327 19.4474 63.272 20.4866 64.2131 21.3773C65.3524 22.466 65.0057 24.4454 64.3122 25.534C63.8169 26.2763 62.7271 27.5629 61.4392 29.1464C60.2009 30.7794 59.0121 32.2144 58.913 32.4124C58.17 33.3031 58.1204 34.5402 58.7149 35.5299C60.0523 37.6577 60.2009 37.6082 61.0925 36.1237C62.529 33.6 64.4608 31.2742 65.8973 29.6412C66.6898 28.7505 67.4328 27.8103 68.0768 26.8206C69.3647 24.9402 69.5133 22.9608 68.1759 21.8227C66.4422 20.2887 64.4113 18.9526 62.7271 17.7155C61.7364 16.9732 62.4299 16.0825 63.4701 15.2907C67.1356 12.5196 72.2872 7.91753 69.9095 2.37526C67.631 -2.96907 56.8821 1.13814 56.4858 12.2227C56.3372 16.1814 56.8821 27.1175 56.5849 29.8392C56.4363 31.4227 57.0307 31.2742 57.6251 31.0268C58.17 30.8289 60.2009 29.7897 60.1018 27.2165C60.0027 24.5938 59.7551 13.3113 59.7055 12.1237C59.2102 5.98763 63.0243 0.247423 65.4515 2.67216Z" fill="white"/>
</g>
<defs>
<clipPath id="clip0_577_3464">
<rect width="92.48" height="48" fill="white" transform="translate(0.76001)"/>
</clipPath>
</defs>
</svg>
