<svg width="96" height="16" viewBox="0 0 96 16" fill="none" xmlns="http://www.w3.org/2000/svg">
<path d="M8.0026 11.513L12.1226 13.9997L11.0293 9.31301L14.6693 6.15967L9.87594 5.75301L8.0026 1.33301L6.12927 5.75301L1.33594 6.15967L4.97594 9.31301L3.8826 13.9997L8.0026 11.513Z" fill="black"/>
<path d="M28.0026 11.513L32.1226 13.9997L31.0293 9.31301L34.6693 6.15967L29.8759 5.75301L28.0026 1.33301L26.1293 5.75301L21.3359 6.15967L24.9759 9.31301L23.8826 13.9997L28.0026 11.513Z" fill="black"/>
<path d="M48.0026 11.513L52.1226 13.9997L51.0293 9.31301L54.6693 6.15967L49.8759 5.75301L48.0026 1.33301L46.1293 5.75301L41.3359 6.15967L44.9759 9.31301L43.8826 13.9997L48.0026 11.513Z" fill="black"/>
<path d="M68.0026 11.513L72.1226 13.9997L71.0293 9.31301L74.6693 6.15967L69.8759 5.75301L68.0026 1.33301L66.1293 5.75301L61.3359 6.15967L64.9759 9.31301L63.8826 13.9997L68.0026 11.513Z" fill="black"/>
<path d="M88.0026 11.513L92.1226 13.9997L91.0293 9.31301L94.6693 6.15967L89.8759 5.75301L88.0026 1.33301L86.1293 5.75301L81.3359 6.15967L84.9759 9.31301L83.8826 13.9997L88.0026 11.513Z" fill="black"/>
</svg>
