<svg width="96" height="16" viewBox="0 0 96 16" fill="none" xmlns="http://www.w3.org/2000/svg">
<path d="M8.0026 11.5133L12.1226 13.9999L11.0293 9.31325L14.6693 6.15992L9.87594 5.75325L8.0026 1.33325L6.12927 5.75325L1.33594 6.15992L4.97594 9.31325L3.8826 13.9999L8.0026 11.5133Z" fill="black"/>
<path d="M28.0026 11.5133L32.1226 13.9999L31.0293 9.31325L34.6693 6.15992L29.8759 5.75325L28.0026 1.33325L26.1293 5.75325L21.3359 6.15992L24.9759 9.31325L23.8826 13.9999L28.0026 11.5133Z" fill="black"/>
<path d="M48.0026 11.5133L52.1226 13.9999L51.0293 9.31325L54.6693 6.15992L49.8759 5.75325L48.0026 1.33325L46.1293 5.75325L41.3359 6.15992L44.9759 9.31325L43.8826 13.9999L48.0026 11.5133Z" fill="black"/>
<path d="M68.0026 11.5133L72.1226 13.9999L71.0293 9.31325L74.6693 6.15992L69.8759 5.75325L68.0026 1.33325L66.1293 5.75325L61.3359 6.15992L64.9759 9.31325L63.8826 13.9999L68.0026 11.5133Z" fill="black"/>
<path d="M88.0026 11.5133L92.1226 13.9999L91.0293 9.31325L94.6693 6.15992L89.8759 5.75325L88.0026 1.33325L86.1293 5.75325L81.3359 6.15992L84.9759 9.31325L83.8826 13.9999L88.0026 11.5133Z" fill="black"/>
</svg>
