<svg width="24" height="24" viewBox="0 0 24 24" fill="none" xmlns="http://www.w3.org/2000/svg">
<path d="M19.2454 6.97827H4.7541C4.57758 6.9791 4.4074 7.04419 4.27538 7.16136C4.14334 7.27853 4.0585 7.43978 4.03671 7.61496L2.76334 19.0933C2.75202 19.1932 2.76186 19.2946 2.79224 19.3904C2.82261 19.4864 2.87285 19.5749 2.93966 19.6502C3.00647 19.7254 3.08838 19.7858 3.18006 19.8273C3.27173 19.8689 3.37112 19.8907 3.47177 19.8913H20.5277C20.6284 19.8907 20.7278 19.8689 20.8195 19.8273C20.9111 19.7858 20.993 19.7254 21.0599 19.6502C21.1267 19.5749 21.1769 19.4864 21.2072 19.3904C21.2377 19.2946 21.2475 19.1932 21.2361 19.0933L19.9628 7.61496C19.941 7.43978 19.8561 7.27853 19.7241 7.16136C19.5921 7.04419 19.4219 6.9791 19.2454 6.97827Z" stroke="black" stroke-width="1.43478" stroke-linecap="round" stroke-linejoin="round"/>
<path d="M7.69531 6.26089C7.69531 5.1193 8.14881 4.02448 8.95602 3.21725C9.76325 2.41004 10.8581 1.95654 11.9997 1.95654C13.1412 1.95654 14.236 2.41004 15.0433 3.21725C15.8505 4.02448 16.304 5.1193 16.304 6.26089" stroke="black" stroke-width="1.43478" stroke-linecap="round" stroke-linejoin="round"/>
</svg>
