<svg width="24" height="24" viewBox="0 0 24 24" fill="none" xmlns="http://www.w3.org/2000/svg">
<path d="M19.2464 6.97827H4.75508C4.57855 6.9791 4.40837 7.04419 4.27635 7.16136C4.14432 7.27853 4.05948 7.43978 4.03769 7.61496L2.76432 19.0933C2.753 19.1932 2.76284 19.2946 2.79321 19.3904C2.82359 19.4864 2.87382 19.5749 2.94064 19.6502C3.00745 19.7254 3.08935 19.7858 3.18103 19.8273C3.2727 19.8689 3.37209 19.8907 3.47275 19.8913H20.5287C20.6294 19.8907 20.7287 19.8689 20.8204 19.8273C20.9121 19.7858 20.994 19.7254 21.0609 19.6502C21.1276 19.5749 21.1778 19.4864 21.2082 19.3904C21.2387 19.2946 21.2485 19.1932 21.2371 19.0933L19.9638 7.61496C19.9419 7.43978 19.8571 7.27853 19.7251 7.16136C19.5931 7.04419 19.4229 6.9791 19.2464 6.97827Z" stroke="black" stroke-width="1.43478" stroke-linecap="round" stroke-linejoin="round"/>
<path d="M7.69531 6.26088C7.69531 5.11929 8.14881 4.02446 8.95602 3.21724C9.76325 2.41002 10.8581 1.95653 11.9997 1.95653C13.1412 1.95653 14.236 2.41002 15.0433 3.21724C15.8505 4.02446 16.304 5.11929 16.304 6.26088" stroke="black" stroke-width="1.43478" stroke-linecap="round" stroke-linejoin="round"/>
</svg>
