<svg width="24" height="24" viewBox="0 0 24 24" fill="none" xmlns="http://www.w3.org/2000/svg">
<path d="M19.2456 6.97827H4.75435C4.57782 6.9791 4.40764 7.04419 4.27562 7.16136C4.14359 7.27853 4.05874 7.43978 4.03696 7.61496L2.76359 19.0933C2.75227 19.1932 2.76211 19.2946 2.79248 19.3904C2.82286 19.4864 2.87309 19.5749 2.9399 19.6502C3.00672 19.7254 3.08862 19.7858 3.1803 19.8273C3.27197 19.8689 3.37136 19.8907 3.47202 19.8913H20.528C20.6287 19.8907 20.728 19.8689 20.8197 19.8273C20.9113 19.7858 20.9932 19.7254 21.0601 19.6502C21.1269 19.5749 21.1771 19.4864 21.2075 19.3904C21.2379 19.2946 21.2478 19.1932 21.2364 19.0933L19.963 7.61496C19.9412 7.43978 19.8564 7.27853 19.7244 7.16136C19.5924 7.04419 19.4222 6.9791 19.2456 6.97827Z" stroke="black" stroke-width="1.43478" stroke-linecap="round" stroke-linejoin="round"/>
<path d="M7.69556 6.26089C7.69556 5.1193 8.14905 4.02448 8.95627 3.21725C9.76349 2.41004 10.8583 1.95654 11.9999 1.95654C13.1415 1.95654 14.2363 2.41004 15.0435 3.21725C15.8508 4.02448 16.3043 5.1193 16.3043 6.26089" stroke="black" stroke-width="1.43478" stroke-linecap="round" stroke-linejoin="round"/>
</svg>
