<svg width="24" height="24" viewBox="0 0 24 24" fill="none" xmlns="http://www.w3.org/2000/svg">
<path d="M19.2456 6.97827H4.75432C4.57779 6.9791 4.40761 7.04419 4.27559 7.16136C4.14356 7.27853 4.05871 7.43978 4.03693 7.61496L2.76356 19.0933C2.75224 19.1932 2.76208 19.2946 2.79245 19.3904C2.82283 19.4864 2.87306 19.5749 2.93987 19.6502C3.00669 19.7254 3.08859 19.7858 3.18027 19.8273C3.27194 19.8689 3.37133 19.8907 3.47199 19.8913H20.5279C20.6286 19.8907 20.728 19.8689 20.8197 19.8273C20.9113 19.7858 20.9932 19.7254 21.0601 19.6502C21.1269 19.5749 21.1771 19.4864 21.2074 19.3904C21.2379 19.2946 21.2477 19.1932 21.2363 19.0933L19.963 7.61496C19.9412 7.43978 19.8563 7.27853 19.7243 7.16136C19.5923 7.04419 19.4222 6.9791 19.2456 6.97827Z" stroke="black" stroke-width="1.43478" stroke-linecap="round" stroke-linejoin="round"/>
<path d="M7.69565 6.26089C7.69565 5.1193 8.14915 4.02448 8.95636 3.21725C9.76359 2.41004 10.8584 1.95654 12 1.95654C13.1416 1.95654 14.2364 2.41004 15.0436 3.21725C15.8509 4.02448 16.3043 5.1193 16.3043 6.26089" stroke="black" stroke-width="1.43478" stroke-linecap="round" stroke-linejoin="round"/>
</svg>
