<svg width="13" height="13" viewBox="0 0 13 13" fill="none" xmlns="http://www.w3.org/2000/svg">
<path d="M1.625 5.625L6 5.625L6 1.25C6 1.01794 6.09219 0.795375 6.25628 0.631281C6.42038 0.467187 6.64294 0.375 6.875 0.375C7.10707 0.375 7.32963 0.467187 7.49372 0.631281C7.65781 0.795376 7.75 1.01794 7.75 1.25L7.75 5.625L12.125 5.625C12.3571 5.625 12.5796 5.71719 12.7437 5.88128C12.9078 6.04538 13 6.26794 13 6.5C13 6.73206 12.9078 6.95462 12.7437 7.11872C12.5796 7.28281 12.3571 7.375 12.125 7.375L7.75 7.375L7.75 11.75C7.75 11.9821 7.65781 12.2046 7.49372 12.3687C7.32962 12.5328 7.10706 12.625 6.875 12.625C6.64294 12.625 6.42038 12.5328 6.25628 12.3687C6.09219 12.2046 6 11.9821 6 11.75L6 7.375L1.625 7.375C1.39294 7.375 1.17038 7.28281 1.00628 7.11872C0.842187 6.95462 0.750001 6.73206 0.750001 6.5C0.750001 6.26793 0.842187 6.04537 1.00628 5.88128C1.17038 5.71719 1.39294 5.625 1.625 5.625Z" fill="black"/>
</svg>
