<svg width="44" height="44" viewBox="0 0 44 44" fill="none" xmlns="http://www.w3.org/2000/svg">
<path d="M28.4803 23.0468L23.2947 28.2333C22.9509 28.577 22.4847 28.7701 21.9986 28.7701C21.5124 28.7701 21.0462 28.577 20.7024 28.2333L15.5168 23.0478C15.0881 22.6228 14.7476 22.1174 14.5148 21.5605C14.282 21.0037 14.1615 20.4063 14.1602 19.8027C14.1588 19.1991 14.2768 18.6012 14.5071 18.0434C14.7375 17.4855 15.0758 16.9786 15.5026 16.5518C15.9294 16.125 16.4363 15.7867 16.9942 15.5563C17.552 15.3259 18.1499 15.208 18.7535 15.2094C19.3571 15.2107 19.9545 15.3312 20.5114 15.564C21.0682 15.7968 21.5736 16.1373 21.9986 16.566C22.8617 15.7244 24.0216 15.2567 25.2271 15.2642C26.4326 15.2718 27.5866 15.754 28.439 16.6064C29.2915 17.4587 29.7739 18.6126 29.7816 19.8181C29.7893 21.0236 29.3218 22.1836 28.4803 23.0468Z" stroke="black" stroke-width="1.375" stroke-linecap="round" stroke-linejoin="round"/>
</svg>
